<svg xmlns="http://www.w3.org/2000/svg" viewBox="0 0 600 400" preserveAspectRatio="xMidYMid slice">
  <defs>
    <linearGradient id="cb-bg" x1="0" y1="0" x2="1" y2="1">
      <stop offset="0%" stop-color="#0f1729"/>
      <stop offset="100%" stop-color="#1f2a44"/>
    </linearGradient>
    <linearGradient id="cb-line" x1="0" y1="0" x2="1" y2="0">
      <stop offset="0%" stop-color="#75c2f9"/>
      <stop offset="100%" stop-color="#f45572"/>
    </linearGradient>
  </defs>
  <rect width="600" height="400" fill="url(#cb-bg)"/>
  <g stroke="rgba(255,255,255,0.08)" stroke-width="1">
    <line x1="0" y1="100" x2="600" y2="100"/>
    <line x1="0" y1="200" x2="600" y2="200"/>
    <line x1="0" y1="300" x2="600" y2="300"/>
  </g>
  <g>
    <rect x="80" y="190" width="14" height="80" fill="#22c55e"/>
    <line x1="87" y1="170" x2="87" y2="290" stroke="#22c55e" stroke-width="2"/>
    <rect x="130" y="160" width="14" height="120" fill="#22c55e"/>
    <line x1="137" y1="140" x2="137" y2="300" stroke="#22c55e" stroke-width="2"/>
    <rect x="180" y="180" width="14" height="60" fill="#ef4444"/>
    <line x1="187" y1="160" x2="187" y2="260" stroke="#ef4444" stroke-width="2"/>
    <rect x="230" y="140" width="14" height="100" fill="#22c55e"/>
    <line x1="237" y1="120" x2="237" y2="260" stroke="#22c55e" stroke-width="2"/>
    <rect x="280" y="170" width="14" height="80" fill="#ef4444"/>
    <line x1="287" y1="150" x2="287" y2="270" stroke="#ef4444" stroke-width="2"/>
    <rect x="330" y="120" width="14" height="120" fill="#22c55e"/>
    <line x1="337" y1="100" x2="337" y2="260" stroke="#22c55e" stroke-width="2"/>
    <rect x="380" y="150" width="14" height="80" fill="#22c55e"/>
    <line x1="387" y1="130" x2="387" y2="250" stroke="#22c55e" stroke-width="2"/>
    <rect x="430" y="180" width="14" height="60" fill="#ef4444"/>
    <line x1="437" y1="160" x2="437" y2="260" stroke="#ef4444" stroke-width="2"/>
    <rect x="480" y="130" width="14" height="100" fill="#22c55e"/>
    <line x1="487" y1="110" x2="487" y2="250" stroke="#22c55e" stroke-width="2"/>
  </g>
  <g fill="#ffffff" font-family="Quicksand, sans-serif" text-anchor="middle">
    <text x="300" y="350" font-size="28" font-weight="700">Crypto Sentiment Bot</text>
    <text x="300" y="378" font-size="13" opacity="0.7">FastAPI · React · Binance · GPT</text>
  </g>
</svg>
