<svg xmlns="http://www.w3.org/2000/svg" viewBox="0 0 600 400" preserveAspectRatio="xMidYMid slice">
  <defs>
    <linearGradient id="vc-bg" x1="0" y1="0" x2="1" y2="1">
      <stop offset="0%" stop-color="#312e81"/>
      <stop offset="100%" stop-color="#0f172a"/>
    </linearGradient>
    <linearGradient id="vc-wave" x1="0" y1="0" x2="1" y2="0">
      <stop offset="0%" stop-color="#a78bfa"/>
      <stop offset="100%" stop-color="#7dd3fc"/>
    </linearGradient>
  </defs>
  <rect width="600" height="400" fill="url(#vc-bg)"/>
  <text x="40" y="50" fill="#c4b5fd" font-family="JetBrains Mono, monospace" font-size="11" font-weight="700" letter-spacing="3">SISTEMA DE VOZ MULTI-CLÍNICA</text>
  <circle cx="300" cy="180" r="60" fill="rgba(167,139,250,0.15)" stroke="#a78bfa" stroke-width="2"/>
  <circle cx="300" cy="180" r="40" fill="rgba(167,139,250,0.25)"/>
  <g stroke="#fff" stroke-width="2.5" fill="none" stroke-linecap="round">
    <path d="M 290 165 v 18 a 10 10 0 0 0 20 0 v -18 a 10 10 0 0 0 -20 0 z"/>
    <path d="M 285 196 a 15 15 0 0 0 30 0"/>
    <line x1="300" y1="211" x2="300" y2="220"/>
  </g>
  <g stroke="url(#vc-wave)" stroke-width="2.5" fill="none" stroke-linecap="round">
    <line x1="170" y1="180" x2="170" y2="180"/>
    <line x1="190" y1="170" x2="190" y2="190"/>
    <line x1="210" y1="155" x2="210" y2="205"/>
    <line x1="230" y1="165" x2="230" y2="195"/>
    <line x1="370" y1="165" x2="370" y2="195"/>
    <line x1="390" y1="155" x2="390" y2="205"/>
    <line x1="410" y1="170" x2="410" y2="190"/>
    <line x1="430" y1="180" x2="430" y2="180"/>
  </g>
  <text x="300" y="290" fill="#fff" font-family="Outfit, sans-serif" font-size="20" font-weight="600" text-anchor="middle">Atención telefónica con IA</text>
  <g font-family="JetBrains Mono, monospace" font-size="11" fill="#c4b5fd" text-anchor="middle">
    <text x="200" y="330">Retell</text>
    <text x="300" y="330">·</text>
    <text x="320" y="330">n8n</text>
    <text x="340" y="330">·</text>
    <text x="380" y="330">Airtable</text>
  </g>
  <text x="300" y="362" fill="#94a3b8" font-family="DM Sans, sans-serif" font-size="12" text-anchor="middle">Gestión de turnos y consultas multi-tenant</text>
</svg>
